<svg width="24" height="24" viewBox="0 0 24 24" fill="none" xmlns="http://www.w3.org/2000/svg">
<g id="apple">
<path id="Fill 1" fill-rule="evenodd" clip-rule="evenodd" d="M16.03 2.70395C16.0825 2.251 15.6503 1.89552 15.2141 2.02807C14.4301 2.26613 13.6325 2.76991 13.1029 3.38971C12.5957 3.97603 12.1384 4.83965 12.0411 5.73796C11.9951 6.16281 12.3816 6.50322 12.8008 6.41986C13.6555 6.25003 14.461 5.71087 14.9993 5.05891C15.5301 4.41645 15.9283 3.58163 16.03 2.70395ZM19.7156 16.2503C19.9833 16.4065 20.0981 16.7325 19.9879 17.0222C19.7836 17.5594 19.4027 18.4263 18.7973 19.311C17.9679 20.5233 17.107 21.7312 15.7509 21.7561C14.4184 21.7807 13.99 20.966 12.4665 20.966C10.9436 20.966 10.4675 21.7312 9.20613 21.7807C7.89715 21.8302 6.90035 20.4698 6.06401 19.2619C4.35506 16.7912 3.04906 12.2803 4.8027 9.23537C5.67385 7.7232 7.2307 6.76565 8.92048 6.74109C10.2059 6.71659 11.4191 7.60585 12.205 7.60585C12.9902 7.60585 14.4646 6.53645 16.0145 6.69349C16.5855 6.71729 18.0642 6.90218 19.2079 8.11248C19.4573 8.37636 19.43 8.79799 19.1506 9.02978C18.5088 9.56204 17.4877 10.6855 17.5036 12.4541C17.5243 14.6797 18.9573 15.8079 19.7156 16.2503Z" fill="#2329D6"/>
</g>
</svg>
