<svg width="24" height="24" viewBox="0 0 24 24" fill="none" xmlns="http://www.w3.org/2000/svg">
<g id="back">
<g id="bell">
<path id="Combined Shape" d="M13.809 9.48843L14.0625 9.9194C13.9079 10.0103 13.7164 10.0115 13.5607 9.92246C13.4051 9.83341 13.309 9.66779 13.309 9.48843H13.809ZM13.809 5.25842L13.5555 4.82746C13.7101 4.73652 13.9015 4.73535 14.0572 4.8244C14.2129 4.91345 14.309 5.07906 14.309 5.25842H13.809ZM2.34831 12L2.0948 12.431C1.94208 12.3411 1.84831 12.1772 1.84831 12C1.84831 11.8228 1.94208 11.6589 2.0948 11.569L2.34831 12ZM13.809 18.7416H14.309C14.309 18.9209 14.2129 19.0866 14.0572 19.1756C13.9015 19.2646 13.7101 19.2635 13.5555 19.1725L13.809 18.7416ZM13.809 14.5116H13.309C13.309 14.3322 13.4051 14.1666 13.5607 14.0775C13.7164 13.9885 13.9079 13.9897 14.0625 14.0806L13.809 14.5116ZM21 18.7416H21.5C21.5 18.9209 21.4039 19.0866 21.2482 19.1756C21.0925 19.2646 20.9011 19.2635 20.7465 19.1725L21 18.7416ZM21 5.25842L20.7465 4.82746C20.9011 4.73652 21.0925 4.73535 21.2482 4.8244C21.4039 4.91345 21.5 5.07906 21.5 5.25842H21ZM13.309 9.48843V5.25842H14.309V9.48843H13.309ZM14.0625 5.68939L2.60182 12.431L2.0948 11.569L13.5555 4.82746L14.0625 5.68939ZM2.60182 11.569L14.0625 18.3106L13.5555 19.1725L2.0948 12.431L2.60182 11.569ZM13.309 18.7416V14.5116H14.309V18.7416H13.309ZM14.0625 14.0806L21.2535 18.3106L20.7465 19.1725L13.5555 14.9425L14.0625 14.0806ZM20.5 18.7416V5.25842H21.5V18.7416H20.5ZM21.2535 5.68939L14.0625 9.9194L13.5555 9.05746L20.7465 4.82746L21.2535 5.68939Z" fill="#2329D6"/>
</g>
</g>
</svg>
