<svg width="24" height="24" viewBox="0 0 24 24" fill="none" xmlns="http://www.w3.org/2000/svg">
<g id="bug">
<path id="Combined Shape" d="M15 6.99999L14.5 6.99999C14.5 7.27613 14.7239 7.49999 15 7.49999V6.99999ZM16.1469 18.0971L16.4337 18.5068L16.1469 18.0971ZM12 21L11.7133 21.4096C11.8854 21.5301 12.1146 21.5301 12.2867 21.4096L12 21ZM7.85307 18.0971L8.13981 17.6875H8.13981L7.85307 18.0971ZM9 6.99999V7.49999C9.27614 7.49999 9.5 7.27613 9.5 6.99999L9 6.99999ZM15 7.49999C15.8284 7.49999 16.5 8.17156 16.5 8.99999H17.5C17.5 7.61927 16.3807 6.49999 15 6.49999V7.49999ZM16.5 8.99999V16.4587H17.5V8.99999H16.5ZM16.5 16.4587C16.5 16.9482 16.2612 17.4068 15.8602 17.6875L16.4337 18.5068C17.102 18.0389 17.5 17.2745 17.5 16.4587H16.5ZM15.8602 17.6875L11.7133 20.5904L12.2867 21.4096L16.4337 18.5068L15.8602 17.6875ZM12.2867 20.5904L8.13981 17.6875L7.56634 18.5068L11.7133 21.4096L12.2867 20.5904ZM8.13981 17.6875C7.73882 17.4068 7.5 16.9482 7.5 16.4587H6.5C6.5 17.2745 6.89803 18.0389 7.56634 18.5068L8.13981 17.6875ZM7.5 16.4587V8.99999H6.5V16.4587H7.5ZM7.5 8.99999C7.5 8.17156 8.17157 7.49999 9 7.49999V6.49999C7.61929 6.49999 6.5 7.61928 6.5 8.99999H7.5ZM9.5 6.99999C9.50001 5.61928 10.6193 4.5 12 4.5V3.5C10.067 3.5 8.50001 5.06699 8.5 6.99998L9.5 6.99999ZM12 4.5C13.3807 4.5 14.5 5.61928 14.5 6.99999L15.5 6.99998C15.5 5.06699 13.933 3.5 12 3.5V4.5Z" fill="#2329D6"/>
<path id="Path 25" d="M4 13H7" stroke="#2329D6" stroke-linecap="round" stroke-linejoin="round"/>
<path id="Path 25_2" d="M3 7L5 9H7" stroke="#2329D6" stroke-linecap="round" stroke-linejoin="round"/>
<path id="Path 25_3" d="M21 7L19 9H17" stroke="#2329D6" stroke-linecap="round" stroke-linejoin="round"/>
<path id="Path 25_4" d="M3 19L5 17H7" stroke="#2329D6" stroke-linecap="round" stroke-linejoin="round"/>
<path id="Path 25_5" d="M17 17H19L21 19V19" stroke="#2329D6" stroke-linecap="round" stroke-linejoin="round"/>
<path id="Path 25_6" d="M17 13H20" stroke="#2329D6" stroke-linecap="round" stroke-linejoin="round"/>
</g>
</svg>
