<svg width="24" height="24" viewBox="0 0 24 24" fill="none" xmlns="http://www.w3.org/2000/svg">
<path d="M21.2922 6L19.9463 14.1627C19.8666 14.6457 19.4491 15 18.9596 15H7.04301C6.55352 15 6.13597 14.6457 6.05633 14.1627L4.84848 6.83731C4.76884 6.35434 4.3513 6 3.8618 6H1.99997" stroke="#2329D6" stroke-linecap="round" stroke-linejoin="round"/>
<path fill-rule="evenodd" clip-rule="evenodd" d="M8 20C8.55228 20 9 19.5523 9 19C9 18.4477 8.55228 18 8 18C7.44772 18 7 18.4477 7 19C7 19.5523 7.44772 20 8 20Z" stroke="#2329D6"/>
<path fill-rule="evenodd" clip-rule="evenodd" d="M18 20C18.5523 20 19 19.5523 19 19C19 18.4477 18.5523 18 18 18C17.4477 18 17 18.4477 17 19C17 19.5523 17.4477 20 18 20Z" stroke="#2329D6"/>
<path d="M16 8H10" stroke="#2329D6" stroke-linecap="round"/>
<path d="M13 5V11" stroke="#2329D6" stroke-linecap="round"/>
</svg>
