<svg width="24" height="24" viewBox="0 0 24 24" fill="none" xmlns="http://www.w3.org/2000/svg">
<g id="cloud-upload">
<path id="Combined Shape" d="M18.9212 11.0251L18.4277 11.1057L18.4884 11.4768L18.8617 11.5215L18.9212 11.0251ZM7.71081 9.16477L7.57658 9.64641L7.96196 9.75382L8.15128 9.40138L7.71081 9.16477ZM19.4147 10.9445C18.9101 7.85651 16.2307 5.5 13 5.5V6.5C15.7328 6.5 18.0009 8.49357 18.4277 11.1057L19.4147 10.9445ZM22.5 14.5C22.5 12.4534 20.9634 10.7664 18.9807 10.5286L18.8617 11.5215C20.3478 11.6998 21.5 12.9657 21.5 14.5H22.5ZM18.5 18.5C20.7091 18.5 22.5 16.7091 22.5 14.5H21.5C21.5 16.1569 20.1569 17.5 18.5 17.5V18.5ZM13 18.5H18.5V17.5H13V18.5ZM6.5 18.5H13V17.5H6.5V18.5ZM1.5 13.5C1.5 16.2614 3.73858 18.5 6.5 18.5V17.5C4.29086 17.5 2.5 15.7091 2.5 13.5H1.5ZM6.5 8.5C3.73858 8.5 1.5 10.7386 1.5 13.5H2.5C2.5 11.2909 4.29086 9.5 6.5 9.5V8.5ZM7.84505 8.68312C7.41651 8.56369 6.96529 8.5 6.5 8.5V9.5C6.87368 9.5 7.23461 9.55111 7.57658 9.64641L7.84505 8.68312ZM13 5.5C10.5204 5.5 8.36594 6.88857 7.27034 8.92816L8.15128 9.40138C9.0796 7.67321 10.9032 6.5 13 6.5V5.5Z" fill="#2329D6"/>
<path id="Path 2" d="M12 11V15" stroke="#2329D6" stroke-linecap="round"/>
<path id="Path 3" d="M14 12L12 10L10 12" stroke="#2329D6" stroke-linecap="round"/>
</g>
</svg>
