<svg width="24" height="24" viewBox="0 0 24 24" fill="none" xmlns="http://www.w3.org/2000/svg">
<g id="colours">
<path id="Oval" fill-rule="evenodd" clip-rule="evenodd" d="M12 14C14.7614 14 17 11.7614 17 9C17 6.23858 14.7614 4 12 4C9.23858 4 7 6.23858 7 9C7 11.7614 9.23858 14 12 14Z" stroke="#2329D6"/>
<path id="Oval_2" fill-rule="evenodd" clip-rule="evenodd" d="M9 19C11.7614 19 14 16.7614 14 14C14 11.2386 11.7614 9 9 9C6.23858 9 4 11.2386 4 14C4 16.7614 6.23858 19 9 19Z" stroke="#2329D6"/>
<path id="Oval_3" fill-rule="evenodd" clip-rule="evenodd" d="M15 19C17.7614 19 20 16.7614 20 14C20 11.2386 17.7614 9 15 9C12.2386 9 10 11.2386 10 14C10 16.7614 12.2386 19 15 19Z" stroke="#2329D6"/>
</g>
</svg>
