<svg width="24" height="24" viewBox="0 0 24 24" fill="none" xmlns="http://www.w3.org/2000/svg">
<path d="M4 6.5C4 4.567 5.567 3 7.5 3L16.5 3C18.433 3 20 4.567 20 6.5V6.5C20 8.433 18.433 10 16.5 10L7.5 10C5.567 10 4 8.433 4 6.5V6.5Z" stroke="#2329D6"/>
<path d="M20 17.5C20 19.433 18.433 21 16.5 21L7.5 21C5.567 21 4 19.433 4 17.5V17.5C4 15.567 5.567 14 7.5 14L16.5 14C18.433 14 20 15.567 20 17.5V17.5Z" stroke="#2329D6"/>
<circle cx="16.5" cy="17.5" r="0.5" stroke="#2329D6"/>
<circle cx="7.5" cy="6.5" r="0.5" stroke="#2329D6"/>
</svg>
