<svg width="24" height="24" viewBox="0 0 24 24" fill="none" xmlns="http://www.w3.org/2000/svg">
<g id="forward">
<path id="Combined Shape" d="M10.191 14.5116H10.691C10.691 14.3322 10.5949 14.1666 10.4393 14.0776C10.2836 13.9885 10.0921 13.9897 9.9375 14.0806L10.191 14.5116ZM4.50702 17.8551L4.25351 17.4241L4.50702 17.8551ZM4.50702 6.14492L4.76053 5.71396L4.50702 6.14492ZM10.191 9.48845L9.9375 9.91942C10.0921 10.0104 10.2836 10.0115 10.4393 9.92247C10.5949 9.83343 10.691 9.66781 10.691 9.48845H10.191ZM11.698 6.14492L11.9515 5.71396L11.698 6.14492ZM20.1864 11.1381L20.4399 10.7071V10.7071L20.1864 11.1381ZM20.1864 12.862L19.9329 12.431L20.1864 12.862ZM11.698 17.8551L11.4445 17.4241L11.698 17.8551ZM9.9375 14.0806L4.25351 17.4241L4.76053 18.2861L10.4445 14.9426L9.9375 14.0806ZM4.25351 17.4241C3.92019 17.6202 3.5 17.3799 3.5 16.9932H2.5C2.5 18.1533 3.76058 18.8743 4.76053 18.2861L4.25351 17.4241ZM3.5 16.9932V7.00686H2.5V16.9932H3.5ZM3.5 7.00686C3.5 6.62015 3.92019 6.37982 4.25351 6.57589L4.76053 5.71396C3.76058 5.12575 2.5 5.84673 2.5 7.00686H3.5ZM4.25351 6.57589L9.9375 9.91942L10.4445 9.05748L4.76053 5.71396L4.25351 6.57589ZM10.691 9.48845V7.00686H9.69101V9.48845H10.691ZM10.691 7.00686C10.691 6.62015 11.1112 6.37982 11.4445 6.57589L11.9515 5.71396C10.9516 5.12575 9.69101 5.84673 9.69101 7.00686H10.691ZM11.4445 6.57589L19.9329 11.5691L20.4399 10.7071L11.9515 5.71396L11.4445 6.57589ZM19.9329 11.5691C20.2615 11.7624 20.2615 12.2377 19.9329 12.431L20.4399 13.2929C21.4259 12.7129 21.4259 11.2871 20.4399 10.7071L19.9329 11.5691ZM19.9329 12.431L11.4445 17.4241L11.9515 18.2861L20.4399 13.2929L19.9329 12.431ZM11.4445 17.4241C11.1112 17.6202 10.691 17.3799 10.691 16.9932H9.69101C9.69101 18.1533 10.9516 18.8743 11.9515 18.2861L11.4445 17.4241ZM10.691 16.9932V14.5116H9.69101V16.9932H10.691Z" fill="#2329D6"/>
</g>
</svg>
