<svg width="24" height="24" viewBox="0 0 24 24" fill="none" xmlns="http://www.w3.org/2000/svg">
<g id="glasses">
<path id="Oval" d="M14 12C14 12 13.1046 11 12 11C10.8954 11 10 12 10 12" stroke="#2329D6" stroke-linecap="round"/>
<path id="Path 5" d="M21 12H22" stroke="#2329D6" stroke-linecap="round"/>
<path id="Path 5_2" d="M2 12H3" stroke="#2329D6" stroke-linecap="round"/>
<path id="Oval_2" fill-rule="evenodd" clip-rule="evenodd" d="M7 15C8.65685 15 10 13.6569 10 12C10 10.3431 8.65685 9 7 9C5.34315 9 4 10.3431 4 12C4 13.6569 5.34315 15 7 15Z" stroke="#2329D6"/>
<path id="Oval_3" fill-rule="evenodd" clip-rule="evenodd" d="M17 15C18.6569 15 20 13.6569 20 12C20 10.3431 18.6569 9 17 9C15.3431 9 14 10.3431 14 12C14 13.6569 15.3431 15 17 15Z" stroke="#2329D6"/>
</g>
</svg>
