<svg width="24" height="24" viewBox="0 0 24 24" fill="none" xmlns="http://www.w3.org/2000/svg">
<g id="hourglass">
<g id="Combined Shape">
<mask id="path-1-inside-1_1_1222" fill="white">
<path fill-rule="evenodd" clip-rule="evenodd" d="M17.7647 5C17.7647 3.34315 16.4216 2 14.7647 2H9.23529C7.57844 2 6.23529 3.34315 6.23529 5V7.40687C6.23529 7.9373 6.446 8.44601 6.82108 8.82108L10 12L6.82108 15.1789C6.446 15.554 6.23529 16.0627 6.23529 16.5931V19C6.23529 20.6569 7.57843 22 9.23529 22H14.7647C16.4216 22 17.7647 20.6569 17.7647 19V16.5931C17.7647 16.0627 17.554 15.554 17.1789 15.1789L14 12L17.1789 8.82108C17.554 8.44601 17.7647 7.9373 17.7647 7.40687V5Z"/>
</mask>
<path d="M6.82108 8.82108L7.52818 8.11397L7.52818 8.11397L6.82108 8.82108ZM10 12L10.7071 12.7071C10.8946 12.5196 11 12.2652 11 12C11 11.7348 10.8946 11.4804 10.7071 11.2929L10 12ZM6.82108 15.1789L6.11397 14.4718L6.11397 14.4718L6.82108 15.1789ZM14 12L13.2929 11.2929C12.9024 11.6834 12.9024 12.3166 13.2929 12.7071L14 12ZM17.1789 8.82108L16.4718 8.11397L16.4718 8.11397L17.1789 8.82108ZM14.7647 3C15.8693 3 16.7647 3.89543 16.7647 5H18.7647C18.7647 2.79086 16.9738 1 14.7647 1V3ZM9.23529 3H14.7647V1H9.23529V3ZM7.23529 5C7.23529 3.89543 8.13072 3 9.23529 3V1C7.02615 1 5.23529 2.79086 5.23529 5H7.23529ZM7.23529 7.40687V5H5.23529V7.40687H7.23529ZM7.52818 8.11397C7.34065 7.92644 7.23529 7.67208 7.23529 7.40687H5.23529C5.23529 8.20252 5.55136 8.96558 6.11397 9.52819L7.52818 8.11397ZM10.7071 11.2929L7.52818 8.11397L6.11397 9.52819L9.29289 12.7071L10.7071 11.2929ZM7.52818 15.886L10.7071 12.7071L9.29289 11.2929L6.11397 14.4718L7.52818 15.886ZM7.23529 16.5931C7.23529 16.3279 7.34065 16.0736 7.52818 15.886L6.11397 14.4718C5.55136 15.0344 5.23529 15.7975 5.23529 16.5931H7.23529ZM7.23529 19V16.5931H5.23529V19H7.23529ZM9.23529 21C8.13072 21 7.23529 20.1046 7.23529 19H5.23529C5.23529 21.2091 7.02615 23 9.23529 23V21ZM14.7647 21H9.23529V23H14.7647V21ZM16.7647 19C16.7647 20.1046 15.8693 21 14.7647 21V23C16.9738 23 18.7647 21.2091 18.7647 19H16.7647ZM16.7647 16.5931V19H18.7647V16.5931H16.7647ZM16.4718 15.886C16.6593 16.0736 16.7647 16.3279 16.7647 16.5931H18.7647C18.7647 15.7975 18.4486 15.0344 17.886 14.4718L16.4718 15.886ZM13.2929 12.7071L16.4718 15.886L17.886 14.4718L14.7071 11.2929L13.2929 12.7071ZM16.4718 8.11397L13.2929 11.2929L14.7071 12.7071L17.886 9.52819L16.4718 8.11397ZM16.7647 7.40687C16.7647 7.67208 16.6593 7.92644 16.4718 8.11397L17.886 9.52819C18.4486 8.96558 18.7647 8.20251 18.7647 7.40687H16.7647ZM16.7647 5V7.40687H18.7647V5H16.7647Z" fill="#2329D6" mask="url(#path-1-inside-1_1_1222)"/>
</g>
</g>
</svg>
