<svg width="24" height="24" viewBox="0 0 24 24" fill="none" xmlns="http://www.w3.org/2000/svg">
<g id="line-chart">
<path id="Path 13" d="M3 16L8 11" stroke="#2329D6" stroke-linecap="round" stroke-linejoin="round"/>
<path id="Oval" fill-rule="evenodd" clip-rule="evenodd" d="M9 11C9.55228 11 10 10.5523 10 10C10 9.44772 9.55228 9 9 9C8.44772 9 8 9.44772 8 10C8 10.5523 8.44772 11 9 11Z" stroke="#2329D6"/>
<path id="Oval Copy" fill-rule="evenodd" clip-rule="evenodd" d="M14 16C14.5523 16 15 15.5523 15 15C15 14.4477 14.5523 14 14 14C13.4477 14 13 14.4477 13 15C13 15.5523 13.4477 16 14 16Z" stroke="#2329D6"/>
<path id="Path 13_2" d="M10 11L13 14" stroke="#2329D6" stroke-linecap="round" stroke-linejoin="round"/>
<path id="Path 13_3" d="M15 14L21 8" stroke="#2329D6" stroke-linecap="round" stroke-linejoin="round"/>
</g>
</svg>
