<svg width="24" height="24" viewBox="0 0 24 24" fill="none" xmlns="http://www.w3.org/2000/svg">
<g id="moon">
<path id="Combined Shape" d="M20.5762 13.1523L21.0496 13.3132C21.1109 13.1329 21.0644 12.9334 20.9297 12.7988C20.795 12.6641 20.5956 12.6176 20.4152 12.6789L20.5762 13.1523ZM10.4238 3L10.8972 3.16092C10.9585 2.9806 10.9121 2.78112 10.7774 2.64645C10.6427 2.51178 10.4432 2.46531 10.2629 2.5266L10.4238 3ZM18 14.0762C18.9567 14.0762 19.8776 13.9179 20.7371 13.6257L20.4152 12.6789C19.658 12.9363 18.8459 13.0762 18 13.0762V14.0762ZM9.5 5.57616C9.5 10.2706 13.3056 14.0762 18 14.0762V13.0762C13.8579 13.0762 10.5 9.7183 10.5 5.57616H9.5ZM9.95044 2.83908C9.65827 3.69859 9.5 4.61941 9.5 5.57616H10.5C10.5 4.73031 10.6398 3.91815 10.8972 3.16092L9.95044 2.83908ZM10.2629 2.5266C6.912 3.66569 4.5 6.8386 4.5 10.5762H5.5C5.5 7.27977 7.62694 4.47885 10.5848 3.4734L10.2629 2.5266ZM4.5 10.5762C4.5 15.2706 8.30558 19.0762 13 19.0762V18.0762C8.85786 18.0762 5.5 14.7183 5.5 10.5762H4.5ZM13 19.0762C16.7376 19.0762 19.9105 16.6642 21.0496 13.3132L20.1028 12.9914C19.0973 15.9492 16.2964 18.0762 13 18.0762V19.0762Z" fill="#2329D6"/>
</g>
</svg>
