<svg width="24" height="24" viewBox="0 0 24 24" fill="none" xmlns="http://www.w3.org/2000/svg">
<g id="radio">
<path id="Oval 5" d="M5.24999 6.47232C2.25588 9.46643 2.25588 14.3208 5.24999 17.315" stroke="#2329D6" stroke-linecap="round"/>
<path id="Oval 5_2" d="M8.62817 8.51544C6.76245 10.3812 6.76245 13.4061 8.62817 15.2718" stroke="#2329D6" stroke-linecap="round"/>
<path id="Oval 5_3" d="M18.6201 6.47232C21.6142 9.46643 21.6142 14.3208 18.6201 17.315" stroke="#2329D6" stroke-linecap="round"/>
<path id="Oval 5_4" d="M15.2419 8.51544C17.1076 10.3812 17.1076 13.4061 15.2419 15.2718" stroke="#2329D6" stroke-linecap="round"/>
<path id="Oval" d="M13.5 12C13.5 12.8284 12.8284 13.5 12 13.5C11.1716 13.5 10.5 12.8284 10.5 12C10.5 11.1716 11.1716 10.5 12 10.5C12.8284 10.5 13.5 11.1716 13.5 12Z" stroke="#2329D6"/>
</g>
</svg>
