<svg width="24" height="24" viewBox="0 0 24 24" fill="none" xmlns="http://www.w3.org/2000/svg">
<path d="M12.7526 5.92418C12.2059 6.28608 11.679 6.70574 11.1924 7.19239C10.4754 7.90932 10.4947 7.94822 9.85359 8.68204M12.7526 5.92418C16.178 3.65685 20.3848 3.65685 20.3848 3.65685C20.3848 3.65685 20.3848 7.86362 18.1174 11.289M12.7526 5.92418L18.1174 11.289M18.1174 11.289C17.7555 11.8358 17.3359 12.3626 16.8492 12.8492C16.1323 13.5662 16.0934 13.5469 15.3596 14.188M6.11523 13.429C5.74278 13.9526 5.53552 14.2635 5.53552 14.2635L9.77816 18.5061C9.77816 18.5061 10.0891 18.2988 10.6127 17.9264M6.11523 13.429L2.70709 10.0208L8.36394 7.19239L9.85359 8.68204M6.11523 13.429C6.83965 12.4105 8.18898 10.5874 9.85359 8.68204M10.6127 17.9264L14.0208 21.3345L16.8492 15.6777L15.3596 14.188M10.6127 17.9264C11.6311 17.202 13.4542 15.8526 15.3596 14.188" stroke="#2329D6"/>
<path d="M5.00002 19C5.3503 17.5825 5.99994 17.0001 6.5 17.5C7.00002 18 6.4175 18.6497 5.00002 19Z" stroke="#2329D6"/>
</svg>
