<svg width="24" height="24" viewBox="0 0 24 24" fill="none" xmlns="http://www.w3.org/2000/svg">
<g id="share-android">
<path id="Path 2" d="M16 8L8 11" stroke="#2329D6" stroke-linecap="round"/>
<path id="Path 2_2" d="M16 16L8 13" stroke="#2329D6" stroke-linecap="round"/>
<path id="Oval" fill-rule="evenodd" clip-rule="evenodd" d="M6 14C7.10457 14 8 13.1046 8 12C8 10.8954 7.10457 10 6 10C4.89543 10 4 10.8954 4 12C4 13.1046 4.89543 14 6 14Z" stroke="#2329D6"/>
<path id="Oval_2" fill-rule="evenodd" clip-rule="evenodd" d="M18 9C19.1046 9 20 8.10457 20 7C20 5.89543 19.1046 5 18 5C16.8954 5 16 5.89543 16 7C16 8.10457 16.8954 9 18 9Z" stroke="#2329D6"/>
<path id="Oval_3" fill-rule="evenodd" clip-rule="evenodd" d="M18 19C19.1046 19 20 18.1046 20 17C20 15.8954 19.1046 15 18 15C16.8954 15 16 15.8954 16 17C16 18.1046 16.8954 19 18 19Z" stroke="#2329D6"/>
</g>
</svg>
