<svg width="24" height="24" viewBox="0 0 24 24" fill="none" xmlns="http://www.w3.org/2000/svg">
<g id="shift">
<path id="caps" d="M16 12V11.5C15.7239 11.5 15.5 11.7239 15.5 12H16ZM21 12V12.5C21.2022 12.5 21.3846 12.3782 21.4619 12.1913C21.5393 12.0045 21.4966 11.7894 21.3536 11.6464L21 12ZM16 17V17.5C16.2761 17.5 16.5 17.2761 16.5 17H16ZM8 17H7.5C7.5 17.2761 7.72386 17.5 8 17.5V17ZM8 12H8.5C8.5 11.7239 8.27614 11.5 8 11.5V12ZM3 12L2.64645 11.6464C2.50345 11.7894 2.46067 12.0045 2.53806 12.1913C2.61545 12.3782 2.79777 12.5 3 12.5V12ZM12 3L12.3536 2.64645C12.1583 2.45118 11.8417 2.45118 11.6464 2.64645L12 3ZM16 12.5H21V11.5H16V12.5ZM16.5 17V12H15.5V17H16.5ZM8 17.5H16V16.5H8V17.5ZM7.5 12V17H8.5V12H7.5ZM3 12.5H8V11.5H3V12.5ZM11.6464 2.64645L2.64645 11.6464L3.35355 12.3536L12.3536 3.35355L11.6464 2.64645ZM21.3536 11.6464L12.3536 2.64645L11.6464 3.35355L20.6464 12.3536L21.3536 11.6464Z" fill="#2329D6"/>
<path id="Path 2" d="M20 21H4" stroke="#2329D6" stroke-linecap="round"/>
</g>
</svg>
