<svg width="24" height="24" viewBox="0 0 24 24" fill="none" xmlns="http://www.w3.org/2000/svg">
<g id="signal-alt">
<g id="news">
<path id="Oval 3" fill-rule="evenodd" clip-rule="evenodd" d="M12 14C12.5523 14 13 13.5523 13 13C13 12.4477 12.5523 12 12 12C11.4477 12 11 12.4477 11 13C11 13.5523 11.4477 14 12 14Z" fill="#2329D6"/>
</g>
<path id="Oval 2" d="M20.1818 19C21.405 17.3757 22 15.4354 22 13.3529C22 7.63445 17.5228 3 12 3C6.47715 3 2 7.63445 2 13.3529C2 15.4052 2.57786 17.3193 3.81818 19" stroke="#2329D6" stroke-linecap="round"/>
<path id="Oval 2_2" d="M16 16C16.7025 15.1878 17 14.2177 17 13C17 10.3172 14.7614 8 12 8C9.23858 8 7 10.3172 7 13C7 14.2026 7.28893 15.1597 8 16" stroke="#2329D6" stroke-linecap="round"/>
</g>
</svg>
