<svg width="24" height="24" viewBox="0 0 24 24" fill="none" xmlns="http://www.w3.org/2000/svg">
<path fill-rule="evenodd" clip-rule="evenodd" d="M17 10C18.1046 10 19 10.8955 19 12C19 13.1046 18.1046 14 17 14C15.8954 14 15 13.1046 15 12C15 10.8955 15.8954 10 17 10Z" stroke="#2329D6"/>
<path d="M17 7.00003C19.7614 7.00003 22 9.23861 22 12V12C22 14.7615 19.7614 17 17 17L8.00002 17C5.23859 17 3.00002 14.7615 3.00002 12V12C3.00002 9.23861 5.23859 7.00003 8.00002 7.00003L17 7.00003Z" stroke="#2329D6"/>
</svg>
