<svg width="24" height="24" viewBox="0 0 24 24" fill="none" xmlns="http://www.w3.org/2000/svg">
<g id="tag-alt">
<path id="Oval 8" fill-rule="evenodd" clip-rule="evenodd" d="M10 13C10.5523 13 11 12.5523 11 12C11 11.4477 10.5523 11 10 11C9.44772 11 9 11.4477 9 12C9 12.5523 9.44772 13 10 13Z" stroke="#2329D6"/>
<g id="arrow-right-bottom">
<path id="Rectangle 2" fill-rule="evenodd" clip-rule="evenodd" d="M8.41421 18C8.149 18 7.89464 17.8946 7.70711 17.7071L2 12L7.70711 6.29289C7.89464 6.10536 8.149 6 8.41421 6H20C21.1046 6 22 6.89543 22 8V16C22 17.1046 21.1046 18 20 18H8.41421Z" stroke="#2329D6" stroke-linecap="round"/>
</g>
</g>
</svg>
