<svg width="24" height="24" viewBox="0 0 24 24" fill="none" xmlns="http://www.w3.org/2000/svg">
<g id="thermometer">
<path id="Combined Shape" d="M10 13.5351L10.2504 13.9679L10.5 13.8235V13.5351H10ZM14 13.5351H13.5V13.8235L13.7496 13.9679L14 13.5351ZM10.5 5C10.5 4.17157 11.1716 3.5 12 3.5V2.5C10.6193 2.5 9.5 3.61929 9.5 5H10.5ZM10.5 13.5351V5H9.5V13.5351H10.5ZM9.74964 13.1023C8.40589 13.8796 7.5 15.3337 7.5 17H8.5C8.5 15.7051 9.20291 14.5739 10.2504 13.9679L9.74964 13.1023ZM7.5 17C7.5 19.4853 9.51472 21.5 12 21.5V20.5C10.067 20.5 8.5 18.933 8.5 17H7.5ZM12 21.5C14.4853 21.5 16.5 19.4853 16.5 17H15.5C15.5 18.933 13.933 20.5 12 20.5V21.5ZM16.5 17C16.5 15.3337 15.5941 13.8796 14.2504 13.1023L13.7496 13.9679C14.7971 14.5739 15.5 15.7051 15.5 17H16.5ZM13.5 5V13.5351H14.5V5H13.5ZM12 3.5C12.8284 3.5 13.5 4.17157 13.5 5H14.5C14.5 3.61929 13.3807 2.5 12 2.5V3.5Z" fill="#2329D6"/>
</g>
</svg>
