<svg width="24" height="24" viewBox="0 0 24 24" fill="none" xmlns="http://www.w3.org/2000/svg">
<g id="tool">
<path id="Combined Shape" d="M13.4697 10.4697L13.0142 10.2637C12.9284 10.4533 12.9691 10.6762 13.1162 10.8233L13.4697 10.4697ZM5.41317 2.58474L5.19733 2.13373C5.05098 2.20376 4.94771 2.34046 4.92034 2.50038C4.89296 2.66031 4.94489 2.82357 5.05962 2.9383L5.41317 2.58474ZM9.77817 6.94975L10.1317 7.3033C10.327 7.10804 10.327 6.79146 10.1317 6.59619L9.77817 6.94975ZM6.94975 9.77817L6.59619 10.1317C6.79146 10.327 7.10804 10.327 7.3033 10.1317L6.94975 9.77817ZM2.58474 5.41317L2.9383 5.05962C2.82357 4.94489 2.66031 4.89296 2.50038 4.92034C2.34046 4.94771 2.20376 5.05098 2.13373 5.19733L2.58474 5.41317ZM9.74293 13.7429L10.0965 13.3894C9.96606 13.259 9.77442 13.2109 9.5979 13.2644L9.74293 13.7429ZM17.0858 21.0858L17.4393 20.7322L17.0858 21.0858ZM13.5 8C13.5 8.80796 13.3261 9.57395 13.0142 10.2637L13.9253 10.6758C14.2947 9.8591 14.5 8.95286 14.5 8H13.5ZM8 2.5C11.0376 2.5 13.5 4.96243 13.5 8H14.5C14.5 4.41015 11.5899 1.5 8 1.5V2.5ZM5.629 3.03576C6.34633 2.69248 7.14999 2.5 8 2.5V1.5C6.99743 1.5 6.04655 1.72733 5.19733 2.13373L5.629 3.03576ZM10.1317 6.59619L5.76672 2.23119L5.05962 2.9383L9.42462 7.3033L10.1317 6.59619ZM7.3033 10.1317L10.1317 7.3033L9.42462 6.59619L6.59619 9.42462L7.3033 10.1317ZM2.23119 5.76672L6.59619 10.1317L7.3033 9.42462L2.9383 5.05962L2.23119 5.76672ZM2.5 8C2.5 7.14999 2.69248 6.34633 3.03576 5.629L2.13373 5.19733C1.72733 6.04655 1.5 6.99743 1.5 8H2.5ZM8 13.5C4.96243 13.5 2.5 11.0376 2.5 8H1.5C1.5 11.5899 4.41015 14.5 8 14.5V13.5ZM9.5979 13.2644C9.09283 13.4175 8.5565 13.5 8 13.5V14.5C8.65585 14.5 9.28987 14.4027 9.88796 14.2214L9.5979 13.2644ZM17.4393 20.7322L10.0965 13.3894L9.38938 14.0965L16.7322 21.4393L17.4393 20.7322ZM19.5607 20.7322C18.9749 21.318 18.0251 21.318 17.4393 20.7322L16.7322 21.4393C17.7085 22.4156 19.2915 22.4156 20.2678 21.4393L19.5607 20.7322ZM20.2322 20.0607L19.5607 20.7322L20.2678 21.4393L20.9393 20.7678L20.2322 20.0607ZM20.2322 17.9393C20.818 18.5251 20.818 19.4749 20.2322 20.0607L20.9393 20.7678C21.9157 19.7915 21.9156 18.2085 20.9393 17.2322L20.2322 17.9393ZM13.1162 10.8233L20.2322 17.9393L20.9393 17.2322L13.8233 10.1162L13.1162 10.8233Z" fill="#2329D6"/>
</g>
</svg>
