<svg width="24" height="24" viewBox="0 0 24 24" fill="none" xmlns="http://www.w3.org/2000/svg">
<g id="watch">
<path id="Combined Shape" d="M10 7.75777V3C10 2.44771 10.4477 2 11 2H14C14.5523 2 15 2.44772 15 3V7.75777" stroke="#2329D6" stroke-linecap="round" stroke-linejoin="round"/>
<path id="Path" d="M15 15.2422V21C15 21.5523 14.5523 22 14 22H11C10.4477 22 10 21.5523 10 21L10 15.2422" stroke="#2329D6" stroke-linecap="round" stroke-linejoin="round"/>
<path id="Oval" fill-rule="evenodd" clip-rule="evenodd" d="M12.5 16C14.9853 16 17 13.9853 17 11.5C17 9.01472 14.9853 7 12.5 7C10.0147 7 8 9.01472 8 11.5C8 13.9853 10.0147 16 12.5 16Z" stroke="#2329D6" stroke-linecap="round" stroke-linejoin="round"/>
</g>
</svg>
